<svg xmlns="http://www.w3.org/2000/svg" viewBox="0 0 1130 670" width="1130px" height="670px"><defs><style>.a,.b,.c,.d,.e,.g,.h{fill:none;}.a{stroke:#c33;}.a,.b,.c,.d,.e{stroke-linecap:round;stroke-linejoin:round;stroke-width:5.41px;}.b{stroke:#369;}.c{stroke:#693;}.d{stroke:#fc0;}.e{stroke:#939;}.f{fill:#939;}.g,.h{stroke:#000;stroke-miterlimit:10;}.g{stroke-width:7.22px;}.h{stroke-width:3.61px;}.i{fill:#369;}.j{fill:#693;}.k{fill:#c33;}.l{fill:#fc0;}</style></defs><title>O-Notation (Landau-Symbol) - Wachstumsverhalten (universaldenker.org)</title><path class="a" d="M73.49,586.23,867.61,514"/><path class="b" d="M73.49,586.23q198.53-18,297.79-144.38T506.65,26.74"/><path class="c" d="M73.49,586.23q270.72-54.14,370-171.46t261.7-388"/><path class="d" d="M73.49,586.23l794.12-18"/><path class="e" d="M73.49,586.23q203.94-28.88,246.36-140.77T380.31,26.74"/><path class="f" d="M278.74,87.18c0-7.48-3.3-13.14-10.48-13.14-6.13,0-11.31,4.95-11.72,5.3a27,27,0,0,0-6.48,10.07c0,.35.29.41.59.41a5.07,5.07,0,0,0,2.95-1.24,4.2,4.2,0,0,0,1.77-2.3,26.7,26.7,0,0,1,4.06-6.54c1.41-1.59,2.59-2.47,4.95-2.47,5.71,0,9.37,4.71,9.37,12.43,0,12-8.54,23.91-19.44,23.91-8.36,0-13-6.66-13-15.08a25.62,25.62,0,0,1,12.72-21.91c.59-.35,2.36-1.41,2.36-2.18,0-.41-.47-.41-.59-.41-2.06,0-19.5,9.37-19.5,27,0,8.25,4.3,15.79,14.08,15.79C261.89,116.87,278.74,105.32,278.74,87.18Z"/><path class="f" d="M296.28,75.9c-3.82,5.12-6.59,11.92-6.59,21.38a35.23,35.23,0,0,0,6.59,21.22h-3.61a33.79,33.79,0,0,1-6.85-21.22c.05-10.3,3.55-17,6.85-21.38Z"/><path class="f" d="M304.39,89.07a4.84,4.84,0,0,1,5,3.82c0,.05,0,.1.05.1l.57-.58a9.64,9.64,0,0,1,7.27-3.35c3.55,0,6.33,1.73,6.33,5.54,0,4.91-4,12.08-4,14.85,0,.73.1,1.36.89,1.36a1.45,1.45,0,0,0,.47-.05c2.14-.37,3.76-3.14,4.55-6.17.1-.37.21-.42,1-.42.63,0,1,0,1,.42a4.47,4.47,0,0,1-.21.78c-.68,2.4-2.87,7.32-7.16,7.32a4.36,4.36,0,0,1-4.65-4.34c0-2.51,3.82-9.41,3.82-14.22,0-2.93-1.57-3.08-2.3-3.08h-.26c-3,0-5.49,1.67-7.58,5.28l-.37.63-1.73,7c-1.46,5.8-1.83,7.06-2,7.37a2.53,2.53,0,0,1-2.25,1.41,1.65,1.65,0,0,1-1.78-1.46c0-1.2,3.76-15.21,4.08-17a8,8,0,0,0,.05-1.2c0-.42.05-2-1.25-2s-2.35,1.52-3.29,5.23c-.16.52-.31,1-.31,1.1-.1.26-.21.31-1,.31h-.73c-.16-.16-.31-.26-.31-.47C298.43,97.18,299.79,89.07,304.39,89.07Z"/><path class="f" d="M331.62,109.51a3.07,3.07,0,0,1,3.08-3.24,3.25,3.25,0,0,1,0,6.48A3.06,3.06,0,0,1,331.62,109.51Zm1.31-7.48-.73-25.09h5L336.48,102Z"/><path class="f" d="M341.76,118.51a35.38,35.38,0,0,0,6.59-21.38c0-9.36-2.82-16-6.59-21.22h3.56c3.35,4.29,6.85,11,6.85,21.28s-3.5,16.89-6.85,21.33Z"/><path class="g" d="M73.49,586.23h898"/><polygon points="961.36 599.6 967.03 586.23 961.36 572.86 993.04 586.23 961.36 599.6"/><line class="h" x1="73.49" y1="586.23" x2="73.49" y2="48.29"/><polygon points="86.86 58.43 73.49 52.75 60.13 58.43 73.49 26.74 86.86 58.43"/><path class="i" d="M555,65.77c0-7.48-3.3-13.14-10.48-13.14-6.13,0-11.31,4.95-11.72,5.3A27,27,0,0,0,526.29,68c0,.35.29.41.59.41a5.07,5.07,0,0,0,2.95-1.24,4.2,4.2,0,0,0,1.77-2.3,26.7,26.7,0,0,1,4.06-6.54c1.41-1.59,2.59-2.47,4.95-2.47,5.71,0,9.37,4.71,9.37,12.43,0,12-8.54,23.91-19.44,23.91-8.36,0-13-6.66-13-15.08A25.62,25.62,0,0,1,530.3,55.23c.59-.35,2.36-1.41,2.36-2.18,0-.41-.47-.41-.59-.41-2.06,0-19.5,9.37-19.5,27,0,8.25,4.3,15.79,14.08,15.79C538.13,95.46,555,83.91,555,65.77Z"/><path class="i" d="M572.52,54.49c-3.82,5.12-6.59,11.92-6.59,21.38a35.24,35.24,0,0,0,6.59,21.22h-3.61a33.79,33.79,0,0,1-6.85-21.22c.05-10.3,3.55-17,6.85-21.38Z"/><path class="i" d="M575.92,90.77V87.95l3.61-3.5c8.68-8.26,12.6-12.65,12.65-17.77,0-3.45-1.67-6.64-6.74-6.64a11.57,11.57,0,0,0-7.21,2.88l-1.46-3.24a14.91,14.91,0,0,1,9.62-3.45c7.32,0,10.4,5,10.4,9.88,0,6.27-4.55,11.34-11.71,18.24l-2.72,2.51V87h15.26v3.82Z"/><path class="i" d="M604.5,56.28a2.82,2.82,0,0,1,2.93,2.22s0,.06,0,.06l.33-.34a5.62,5.62,0,0,1,4.24-2c2.07,0,3.69,1,3.69,3.23,0,2.86-2.32,7-2.32,8.65,0,.43.06.79.52.79a.85.85,0,0,0,.27,0c1.25-.21,2.19-1.83,2.65-3.6.06-.21.12-.24.61-.24s.61,0,.61.24a2.64,2.64,0,0,1-.12.46c-.4,1.4-1.68,4.27-4.17,4.27A2.54,2.54,0,0,1,611,67.53c0-1.46,2.22-5.48,2.22-8.29,0-1.71-.91-1.8-1.34-1.8h-.15c-1.77,0-3.2,1-4.42,3.08l-.21.37-1,4.08c-.85,3.38-1.07,4.11-1.16,4.3a1.48,1.48,0,0,1-1.31.82,1,1,0,0,1-1-.85c0-.7,2.19-8.87,2.38-9.93a4.76,4.76,0,0,0,0-.7c0-.24,0-1.19-.73-1.19s-1.37.88-1.92,3c-.09.3-.18.61-.18.64s-.12.18-.58.18h-.43c-.09-.09-.18-.15-.18-.27S601.82,56.28,604.5,56.28Z"/><path class="i" d="M619.71,97.1a35.39,35.39,0,0,0,6.59-21.38c0-9.36-2.82-16-6.59-21.22h3.55c3.35,4.29,6.85,11,6.85,21.28s-3.5,16.89-6.85,21.33Z"/><path class="j" d="M738.17,95.55c0-7.48-3.3-13.14-10.48-13.14-6.13,0-11.31,4.95-11.72,5.3a27,27,0,0,0-6.48,10.07c0,.35.29.41.59.41A5.07,5.07,0,0,0,713,97a4.2,4.2,0,0,0,1.77-2.3,26.7,26.7,0,0,1,4.06-6.54c1.41-1.59,2.59-2.47,4.95-2.47,5.71,0,9.37,4.71,9.37,12.43,0,12-8.54,23.91-19.44,23.91-8.36,0-13-6.66-13-15.08A25.62,25.62,0,0,1,713.49,85c.59-.35,2.36-1.41,2.36-2.18,0-.41-.47-.41-.59-.41-2.06,0-19.5,9.37-19.5,27,0,8.25,4.3,15.79,14.08,15.79C721.32,125.24,738.17,113.69,738.17,95.55Z"/><path class="j" d="M755.71,84.27c-3.82,5.12-6.59,11.92-6.59,21.38a35.24,35.24,0,0,0,6.59,21.22H752.1a33.79,33.79,0,0,1-6.85-21.22c.05-10.3,3.55-17,6.85-21.38Z"/><path class="j" d="M763.81,97.44a4.84,4.84,0,0,1,5,3.82c0,.05,0,.1.05.1l.58-.58a9.64,9.64,0,0,1,7.27-3.35c3.55,0,6.33,1.73,6.33,5.54,0,4.91-4,12.08-4,14.85,0,.73.1,1.36.89,1.36a1.45,1.45,0,0,0,.47-.05c2.14-.37,3.76-3.14,4.55-6.17.1-.37.21-.42,1-.42.63,0,1,0,1,.42a4.47,4.47,0,0,1-.21.78c-.68,2.4-2.87,7.32-7.16,7.32a4.36,4.36,0,0,1-4.65-4.34c0-2.51,3.82-9.41,3.82-14.22,0-2.93-1.57-3.08-2.3-3.08h-.26c-3,0-5.49,1.67-7.58,5.28l-.37.63-1.73,7c-1.46,5.8-1.83,7.06-2,7.37a2.53,2.53,0,0,1-2.25,1.41,1.65,1.65,0,0,1-1.78-1.46c0-1.2,3.76-15.21,4.08-17a8.2,8.2,0,0,0,.05-1.2c0-.42.05-2-1.25-2s-2.35,1.52-3.29,5.23c-.16.52-.31,1-.31,1.1-.1.26-.21.31-1,.31h-.73c-.16-.16-.31-.26-.31-.47C757.85,105.54,759.21,97.44,763.81,97.44Z"/><path class="j" d="M789.49,99.53V97.89l2.1-2c5.06-4.81,7.34-7.37,7.37-10.36,0-2-1-3.87-3.93-3.87a6.75,6.75,0,0,0-4.21,1.68L790,81.4a8.7,8.7,0,0,1,5.61-2c4.27,0,6.06,2.93,6.06,5.76,0,3.66-2.65,6.61-6.83,10.63l-1.58,1.46v.06h8.9v2.22Z"/><path class="j" d="M804.8,126.87a35.39,35.39,0,0,0,6.59-21.38c0-9.36-2.82-16-6.59-21.22h3.55c3.35,4.29,6.85,11,6.85,21.28s-3.5,16.89-6.85,21.33Z"/><path class="k" d="M776.46,463.88c0-7.48-3.3-13.14-10.48-13.14-6.13,0-11.31,4.95-11.72,5.3a27,27,0,0,0-6.48,10.07c0,.35.29.41.59.41a5.07,5.07,0,0,0,2.95-1.24,4.2,4.2,0,0,0,1.77-2.3,26.7,26.7,0,0,1,4.06-6.54c1.41-1.59,2.59-2.47,4.95-2.47,5.71,0,9.37,4.71,9.37,12.43,0,12-8.54,23.91-19.44,23.91-8.36,0-13-6.66-13-15.08a25.62,25.62,0,0,1,12.72-21.91c.59-.35,2.36-1.41,2.36-2.18,0-.41-.47-.41-.59-.41-2.06,0-19.5,9.37-19.5,27,0,8.25,4.3,15.79,14.08,15.79C759.62,493.57,776.46,482,776.46,463.88Z"/><path class="k" d="M794,452.6c-3.82,5.12-6.59,11.92-6.59,21.38A35.23,35.23,0,0,0,794,495.2H790.4c-3.29-4.34-6.85-11-6.85-21.22s3.55-17,6.85-21.38Z"/><path class="k" d="M802.11,465.77a4.84,4.84,0,0,1,5,3.82c0,.05,0,.1.05.1l.58-.58a9.63,9.63,0,0,1,7.27-3.35c3.55,0,6.33,1.73,6.33,5.54,0,4.91-4,12.08-4,14.85,0,.73.1,1.36.89,1.36a1.47,1.47,0,0,0,.47-.05c2.14-.37,3.76-3.14,4.55-6.17.1-.37.21-.42,1-.42.63,0,1,0,1,.42a4.46,4.46,0,0,1-.21.78c-.68,2.4-2.87,7.32-7.16,7.32a4.36,4.36,0,0,1-4.65-4.34c0-2.51,3.82-9.41,3.82-14.22,0-2.93-1.57-3.08-2.3-3.08h-.26c-3,0-5.49,1.67-7.58,5.28l-.37.63-1.73,7c-1.46,5.8-1.83,7.06-2,7.37a2.53,2.53,0,0,1-2.25,1.41,1.65,1.65,0,0,1-1.78-1.46c0-1.2,3.76-15.21,4.08-17a8.19,8.19,0,0,0,.05-1.2c0-.42.05-2-1.25-2s-2.35,1.52-3.29,5.23c-.16.52-.31,1-.31,1.1-.1.26-.21.31-1,.31h-.73c-.16-.16-.31-.26-.31-.47C796.15,473.88,797.51,465.77,802.11,465.77Z"/><path class="k" d="M827.46,495.2A35.38,35.38,0,0,0,834,473.82c0-9.36-2.82-16-6.59-21.22H831c3.35,4.29,6.85,11,6.85,21.28s-3.5,16.88-6.85,21.33Z"/><path class="l" d="M930.18,520.45c0-7.48-3.3-13.14-10.48-13.14-6.13,0-11.31,4.95-11.72,5.3a27,27,0,0,0-6.48,10.07c0,.35.29.41.59.41a5.07,5.07,0,0,0,2.95-1.24,4.2,4.2,0,0,0,1.77-2.3,26.7,26.7,0,0,1,4.06-6.54c1.41-1.59,2.59-2.47,4.95-2.47,5.71,0,9.37,4.71,9.37,12.43,0,12-8.54,23.91-19.44,23.91-8.36,0-13-6.66-13-15.08A25.62,25.62,0,0,1,905.5,509.9c.59-.35,2.36-1.41,2.36-2.18,0-.41-.47-.41-.59-.41-2.06,0-19.5,9.37-19.5,27,0,8.25,4.3,15.79,14.08,15.79C913.34,550.13,930.18,538.59,930.18,520.45Z"/><path class="l" d="M947.73,509.16c-3.82,5.12-6.59,11.92-6.59,21.38a35.23,35.23,0,0,0,6.59,21.22h-3.61c-3.29-4.34-6.85-11-6.85-21.22s3.55-17,6.85-21.38Z"/><path class="l" d="M951.7,543c1.25,0,2.09-.05,2.46-.73,0-.1.05-7.06.05-14.06s-.05-14.06-.05-14.32c-.21-1.36-.78-1.67-3.08-1.78h-.94v-1.2c0-1.1,0-1.2.1-1.2s1.83-.16,4-.26l4.08-.31h.16v16.47c0,11.5,0,16.57.05,16.68a1.35,1.35,0,0,0,.63.58,22.42,22.42,0,0,0,2.56.16h.84v2.4h-.42c-.1,0-4.5-.16-5.75-.16s-5.7.16-5.8.16h-.42V543h1.57Z"/><path class="l" d="M976.37,522c6.27,0,11.55,5.49,11.55,12.18a11.58,11.58,0,1,1-23.16.05C964.77,527.72,969.89,522,976.37,522Zm6.38,13.33v-3c0-3.19-.31-7.27-5.44-8.36a4.53,4.53,0,0,0-.84-.05,7.44,7.44,0,0,0-3,.63c-3.4,1.73-3.61,5.28-3.61,8v1c0,3.29.1,5.23,1,7.06a5.79,5.79,0,0,0,5.49,3.19C980.24,543.88,982.75,541.52,982.75,535.35Z"/><path class="l" d="M1011.87,521.76a2.9,2.9,0,0,1,2.93,3,1.8,1.8,0,0,1-1.88,1.88,1.72,1.72,0,0,1-1.93-1.57,1.82,1.82,0,0,1,.16-1.1c0-.1.05-.16.05-.21a6.17,6.17,0,0,0-2.77,1.15c-.26.16-.42.31-.42.37a7.48,7.48,0,0,1,1.93,4.91c0,4.34-3.92,7.79-8.89,7.79a9.21,9.21,0,0,1-5.18-1.46,3.45,3.45,0,0,0-.57,2,3.09,3.09,0,0,0,1.36,2.72c.63.42.42.37,4.65.42,3.82.05,4.34.05,5.65.31a10.11,10.11,0,0,1,5,2.14,7.16,7.16,0,0,1,2,5.12c0,2.14-1.15,4-4.08,5.38a15.2,15.2,0,0,1-7.42,1.62,15.39,15.39,0,0,1-7.48-1.62c-1-.47-4.08-2.09-4.08-5.23a5.68,5.68,0,0,1,3.29-4.86l.58-.31a5.92,5.92,0,0,1-1.88-4.39,7.07,7.07,0,0,1,1.52-4.44,6.81,6.81,0,0,1-2.3-5.17c0-4.44,4.13-7.84,8.94-7.84a9.71,9.71,0,0,1,5,1.36l.58.37A7.6,7.6,0,0,1,1011.87,521.76Zm-9.62,23.68h-1.41c-3.45,0-3.5,0-4.18.31a3.9,3.9,0,0,0-2.25,3.55c0,1,1.2,4.86,8.1,4.86,5.12,0,8-2.51,8-4.81C1010.51,545.65,1005.7,545.44,1002.25,545.44ZM1001,524.32a3.82,3.82,0,0,0-4,3.19,17.73,17.73,0,0,0-.16,2.67c0,2.88.26,4.23,1.93,5.23a4.46,4.46,0,0,0,2.25.52,3.74,3.74,0,0,0,4-3.14,17,17,0,0,0,.16-2.61,17.75,17.75,0,0,0-.16-2.67A3.86,3.86,0,0,0,1001,524.32Z"/><path class="l" d="M1029.38,509.16c-3.82,5.12-6.59,11.92-6.59,21.38a35.23,35.23,0,0,0,6.59,21.22h-3.61c-3.29-4.34-6.85-11-6.85-21.22s3.55-17,6.85-21.38Z"/><path class="l" d="M1037.48,522.34a4.84,4.84,0,0,1,5,3.82c0,.05,0,.1.05.1l.58-.58a9.63,9.63,0,0,1,7.27-3.35c3.55,0,6.33,1.73,6.33,5.54,0,4.91-4,12.08-4,14.85,0,.73.1,1.36.89,1.36a1.47,1.47,0,0,0,.47-.05c2.14-.37,3.76-3.14,4.55-6.17.1-.37.21-.42,1-.42.63,0,1,0,1,.42a4.46,4.46,0,0,1-.21.78c-.68,2.4-2.87,7.32-7.16,7.32a4.36,4.36,0,0,1-4.65-4.34c0-2.51,3.82-9.41,3.82-14.22,0-2.93-1.57-3.08-2.3-3.08H1050c-3,0-5.49,1.67-7.58,5.28l-.37.63-1.73,7c-1.46,5.8-1.83,7.06-2,7.37a2.53,2.53,0,0,1-2.25,1.41,1.65,1.65,0,0,1-1.78-1.46c0-1.2,3.76-15.21,4.08-17a8.19,8.19,0,0,0,.05-1.2c0-.42.05-2-1.25-2s-2.35,1.52-3.29,5.23c-.16.52-.31,1-.31,1.1-.1.26-.21.31-1,.31h-.73c-.16-.16-.31-.26-.31-.47C1031.52,530.44,1032.88,522.34,1037.48,522.34Z"/><path class="l" d="M1062.83,551.77a35.38,35.38,0,0,0,6.59-21.38c0-9.36-2.82-16-6.59-21.22h3.55c3.35,4.29,6.85,11,6.85,21.28s-3.5,16.88-6.85,21.33Z"/><path class="l" d="M1077.68,551.77a35.38,35.38,0,0,0,6.59-21.38c0-9.36-2.82-16-6.59-21.22h3.55c3.35,4.29,6.85,11,6.85,21.28s-3.5,16.88-6.85,21.33Z"/><path d="M1049.7,578c0-7.48-3.3-13.14-10.48-13.14-6.13,0-11.31,4.95-11.72,5.3a27,27,0,0,0-6.48,10.07c0,.35.29.41.59.41a5.07,5.07,0,0,0,2.95-1.24,4.2,4.2,0,0,0,1.77-2.3,26.7,26.7,0,0,1,4.06-6.54c1.41-1.59,2.59-2.47,4.95-2.47,5.71,0,9.37,4.71,9.37,12.43,0,12-8.54,23.91-19.44,23.91-8.36,0-13-6.66-13-15.08A25.62,25.62,0,0,1,1025,567.41c.59-.35,2.36-1.41,2.36-2.18,0-.41-.47-.41-.59-.41-2.06,0-19.5,9.37-19.5,27,0,8.25,4.3,15.79,14.08,15.79C1032.86,607.64,1049.7,596.1,1049.7,578Z"/><path d="M1067.25,566.67c-3.82,5.12-6.59,11.92-6.59,21.38a35.23,35.23,0,0,0,6.59,21.22h-3.61c-3.29-4.34-6.85-11-6.85-21.22s3.55-17,6.85-21.38Z"/><path d="M1073.62,573.89h-1v-2.41h1c5.44-.21,8.21-2.46,8.94-3.19.1-.16.16-.16.63-.16.63,0,.47,0,.89.31v15.63l.05,15.68c.58.57.63.78,5.12.78h1.36V603H1090c-.37-.05-8.26-.16-8.31-.16s-7.84.1-8.21.16h-.63v-2.4h1.36c4.76,0,4.44-.26,5.17-.78v-27A16.45,16.45,0,0,1,1073.62,573.89Z"/><path d="M1095.47,609.28a35.38,35.38,0,0,0,6.59-21.38c0-9.36-2.82-16-6.59-21.22H1099c3.35,4.29,6.85,11,6.85,21.28s-3.5,16.88-6.85,21.33Z"/><path d="M476.76,608.58c0-3.14-.37-3.5-3.19-3.61h-.94v-1.2c0-1.1,0-1.2.1-1.2s1.83-.16,4-.26l4.08-.31h.16v15.89c0,8.73,0,16,.05,16.15.21,1.41.78,1.73,3.08,1.83H485v2.4c-.1,0-7.79.52-8.1.58h-.37V636l-.42.37a10.73,10.73,0,0,1-6.8,2.51c-5,0-10.51-4.23-10.51-11.81,0-7.21,5.44-11.87,11-11.87a10.72,10.72,0,0,1,6.9,2.56V612.4C476.71,610.83,476.76,609.57,476.76,608.58Zm-6.12,8.52A6.5,6.5,0,0,0,466.1,619c-2.09,2.14-2.2,5-2.2,8.26s.16,6,2.2,7.95a5.54,5.54,0,0,0,4.08,1.72c4.18,0,6.17-3.71,6.38-4V620.39A7,7,0,0,0,470.64,617.1Z"/><path d="M489.41,619.5c0-1.88,1.41-4.65,8.1-4.65,5.49,0,8.47,3,9.3,5.65.31.94.31.84.31,7.63v3.66c0,3.14.16,4.39,1.36,4.39s1.31-1.31,1.31-3.61v-1.88h2.09v2a9.93,9.93,0,0,1-.16,2.46,4.88,4.88,0,0,1-4.7,3.4,4,4,0,0,1-3.71-3.14v-.21a8.55,8.55,0,0,1-7.27,3.61c-3.71,0-8.16-2-8.16-6.17,0-3.35,2.93-7.79,14.11-8.42h.73v-1.15a6.8,6.8,0,0,0-.31-2.61,5,5,0,0,0-5.07-3.71,9.9,9.9,0,0,0-3.5.42,3,3,0,0,1,1.15,2.3,2.75,2.75,0,0,1-2.87,2.82A2.72,2.72,0,0,1,489.41,619.5ZM497,636.91a5.72,5.72,0,0,0,5.54-4.34,16.4,16.4,0,0,0,.16-3.45c0-1.67,0-3-.05-3s-10,.31-10,6.64A4.33,4.33,0,0,0,497,636.91Z"/><path d="M519.62,606.91v-.78h2.09v9.62h7.06v2.4h-7.06v7.53c.05,8.42,0,7.95.42,9a2.74,2.74,0,0,0,2.56,2c1.73,0,2.56-1.83,2.82-3.71.05-.42.05-1.1.05-2.41v-1.83h2.09v2.46a7.82,7.82,0,0,1-2.2,6.12,4.77,4.77,0,0,1-3.66,1.41,6.07,6.07,0,0,1-6.43-5.75c-.05-.37-.05-2.82-.05-7.74v-7.16h-4.13v-1.93h.47C517.69,615.9,519.42,611.14,519.62,606.91Z"/><path d="M535.88,619.5c0-1.88,1.41-4.65,8.1-4.65,5.49,0,8.47,3,9.3,5.65.31.94.31.84.31,7.63v3.66c0,3.14.16,4.39,1.36,4.39s1.31-1.31,1.31-3.61v-1.88h2.09v2a9.93,9.93,0,0,1-.16,2.46,4.88,4.88,0,0,1-4.7,3.4,4,4,0,0,1-3.71-3.14v-.21a8.55,8.55,0,0,1-7.27,3.61c-3.71,0-8.16-2-8.16-6.17,0-3.35,2.93-7.79,14.11-8.42h.73v-1.15a6.8,6.8,0,0,0-.31-2.61,5,5,0,0,0-5.07-3.71,9.9,9.9,0,0,0-3.5.42,3,3,0,0,1,1.15,2.3,2.75,2.75,0,0,1-2.87,2.82A2.72,2.72,0,0,1,535.88,619.5Zm7.63,17.41a5.72,5.72,0,0,0,5.54-4.34,16.4,16.4,0,0,0,.16-3.45c0-1.67,0-3-.05-3s-10,.31-10,6.64A4.33,4.33,0,0,0,543.51,636.91Z"/><path d="M579.27,638.12c-1.25,0-5.59.16-5.7.16h-.42v-2.4H574a22.38,22.38,0,0,0,2.56-.16c.63-.26.68-.31.68-2.77V623c0-3.71-.1-4.08-.84-4.44a6.72,6.72,0,0,0-2.46-.37h-.58v-1.2c0-1.1,0-1.2.1-1.2s1.78-.16,3.87-.26l4-.31h.16V635c.31.68.47.78,2.46.84h1.2v2.4h-.42C584.44,638.22,579.32,638.12,579.27,638.12Zm-.63-34.82a3,3,0,0,1,3,3.14,3.11,3.11,0,1,1-6.22,0A3,3,0,0,1,578.64,603.3Z"/><path d="M589.2,635.87c1.25,0,2.09-.05,2.46-.73,0-.1.05-3.76.05-7.48s-.05-7.48-.05-7.74c-.21-1.36-.78-1.67-3.08-1.78h-.94v-1.2c0-1.1,0-1.2.1-1.2s1.78-.16,3.92-.26l4-.31h.16v2.09a8.67,8.67,0,0,0,.05,2,9.9,9.9,0,0,1,5.38-3.82,10.49,10.49,0,0,1,2.67-.26c5.49.21,6.38,3.71,6.64,5.91.05.37.05,3,.05,7.27v4.5c0,2.77.05,2.67.68,2.88a22.42,22.42,0,0,0,2.56.16h.84v2.4h-.42c-.1,0-4.6-.16-5.86-.16s-5.7.1-5.85.16h-.42v-2.4h.84c2,0,3.19-.16,3.19-.84.05-.1.05-3.35.05-7.21-.05-6.38-.05-7-.1-7.48-.68-3.14-2.51-3.19-3.66-3.19a5.25,5.25,0,0,0-4.13,1.78c-2,2-2.2,3.82-2.2,7.21v6.48c0,3,.05,2.82.68,3.08a22.42,22.42,0,0,0,2.56.16h.84v2.4h-.42c-.11,0-4.6-.16-5.86-.16s-5.7.1-5.85.16h-.42v-2.4h1.57Z"/><path d="M618,646c1.25,0,2.09-.05,2.46-.73,0-.1.05-6.27.05-12.55s-.05-12.55-.05-12.81c-.21-1.36-.78-1.67-3.08-1.78h-.94v-1.2c0-1.1,0-1.2.1-1.2s1.83-.16,4-.26l4.08-.31h.16v1.36l.05,1.36.42-.37a11.6,11.6,0,0,1,7.21-2.3c5.59,0,10.25,5,10.25,11.76a11.47,11.47,0,0,1-11.08,11.87,9.58,9.58,0,0,1-6.27-2.3l-.42-.37v7.37c0,1.88.05,2,.68,2.3a22.38,22.38,0,0,0,2.56.16H629v2.4h-.42c-.1,0-4.6-.16-5.86-.16s-5.7.11-5.85.16h-.42V646H618Zm13.33-28.75a7.83,7.83,0,0,0-6.43,3.4v12.49a6.81,6.81,0,0,0,5.85,3.76c3.35,0,6.8-3.92,6.8-10C637.55,621.75,634.83,617.26,631.33,617.26Z"/><path d="M657.83,638.79h-.37c-2,0-6.53-.05-7.53-5.17-.05-.42-.05-1-.1-7.16-.05-7.32,0-6.9-.37-7.48s-1.31-.84-3.14-.84h-.58v-1.2c0-1.1,0-1.2.1-1.2s1.88-.16,4.08-.26l4.13-.31h.16v9.46c.05,10.4-.16,10.67.89,11.55a5.55,5.55,0,0,0,3.14.73c4.81,0,5.86-4.65,6-6.17,0-.31.05-2.87.05-5.44v-3.5c0-3.19-.31-3.55-3.14-3.66h-.94v-2.4c.1,0,7.79-.52,8.1-.58h.37v9.31c0,5.07,0,9.41.05,9.57.21,1.41.78,1.73,3.08,1.83h.94v2.4c-.1,0-7.63.52-7.95.58h-.37v-3.61C661.65,638.64,659.4,638.79,657.83,638.79Z"/><path d="M680.89,606.91v-.78H683v9.62H690v2.4H683v7.53c.05,8.42,0,7.95.42,9a2.74,2.74,0,0,0,2.56,2c1.73,0,2.56-1.83,2.82-3.71.05-.42.05-1.1.05-2.41v-1.83h2.09v2.46a7.82,7.82,0,0,1-2.2,6.12,4.77,4.77,0,0,1-3.66,1.41,6.07,6.07,0,0,1-6.43-5.75c-.05-.37-.05-2.82-.05-7.74v-7.16h-4.13v-1.93h.47C679,615.9,680.68,611.14,680.89,606.91Z"/><path d="M21.14,53.22a10.29,10.29,0,0,1,.76-2.85c.29-.57.19-.57,5.7-.57h5l1.81-7.61c1.81-6.84,2-10.93,6.65-10.93a2.94,2.94,0,0,1,3,2.85c0,1.43-3.71,15.5-3.71,15.5,0,.19.29.19,4.75.19H50c.38.38.67.57.67,1a5.29,5.29,0,0,1-1.24,3.33H39.29L35.87,68c-3.14,12.83-3.71,14.73-3.71,16.35,0,3,1,4,2.57,4,4.56,0,9.13-5.23,11.5-11.22.29-.76.38-.86,1.9-.86h.38c.86,0,1.43.1,1.43.76a3.84,3.84,0,0,1-.29,1.14c-1.14,3.42-7,13.69-15.59,13.69-3,0-7.6-1.33-9.13-6.37a8.26,8.26,0,0,1-.19-2.57V81.17l3.33-13.31c1.81-7.32,3.33-13.4,3.42-13.5s-.29-.19-4.85-.19H21.8C21.42,53.79,21.14,53.79,21.14,53.22Z"/></svg>